<svg width="562" height="562" viewBox="0 0 562 562" fill="none" xmlns="http://www.w3.org/2000/svg">
<circle cx="281" cy="281" r="281" fill="url(#paint0_linear_241_753)"/>
<path d="M174.668 125.418H198.003V229.137H178.605L127.706 166.164V229.137H104.371V125.418H123.914L174.668 188.39V125.418Z" fill="white"/>
<path d="M222.157 229.137V125.418H245.784V229.137H222.157Z" fill="white"/>
<path d="M318.87 230.915C287.222 230.915 263.595 208.541 263.595 177.277C263.595 146.013 287.222 123.64 319.016 123.64C336.663 123.64 351.394 130.159 361.019 142.013L345.851 156.237C338.997 148.236 330.392 144.087 320.183 144.087C301.077 144.087 287.514 157.719 287.514 177.277C287.514 196.836 301.077 210.467 320.183 210.467C330.392 210.467 338.997 206.318 345.851 198.169L361.019 212.393C351.394 224.395 336.663 230.915 318.87 230.915Z" fill="white"/>
<path d="M400.455 209.874H456.022V229.137H376.974V125.418H454.126V144.68H400.455V167.202H447.855V185.871H400.455V209.874Z" fill="white"/>
<path d="M142.347 343.762C127.556 343.762 112.632 339.381 104.371 333.008L111.699 316.809C119.561 322.518 131.288 326.502 142.481 326.502C155.273 326.502 160.47 322.253 160.47 316.543C160.47 299.15 106.236 311.1 106.236 276.578C106.236 260.778 119.028 247.633 145.546 247.633C157.272 247.633 169.264 250.421 177.926 255.865L171.263 272.196C162.602 267.284 153.674 264.894 145.412 264.894C132.62 264.894 127.69 269.674 127.69 275.516C127.69 292.644 181.923 280.827 181.923 314.95C181.923 330.485 168.998 343.762 142.347 343.762Z" fill="white"/>
<path d="M266.365 342.169L258.103 322.253H214.796L206.534 342.169H184.415L225.989 249.226H247.31L289.018 342.169H266.365ZM221.725 305.921H251.307L236.516 270.337L221.725 305.921Z" fill="white"/>
<path d="M369.185 266.487H320.282V291.05H363.456V308.311H320.282V342.169H298.695V249.226H369.185V266.487Z" fill="white"/>
<path d="M405.253 324.908H456.022V342.169H383.799V249.226H454.29V266.487H405.253V286.669H448.56V303.399H405.253V324.908Z" fill="white"/>
<path d="M136.329 363.964C155.823 363.964 168.019 374.099 168.019 390.504C168.019 406.804 155.823 416.939 136.329 416.939H121.631V437.106H104.743V363.964H136.329ZM135.391 403.147C145.711 403.147 150.923 398.445 150.923 390.504C150.923 382.458 145.711 377.756 135.391 377.756H121.631V403.147H135.391Z" fill="white"/>
<path d="M180.076 437.106V363.964H196.964V423.313H233.553V437.106H180.076Z" fill="white"/>
<path d="M298.12 437.106L291.657 421.432H257.777L251.314 437.106H234.009L266.534 363.964H283.213L315.841 437.106H298.12ZM263.198 408.58H286.34L274.769 380.577L263.198 408.58Z" fill="white"/>
<path d="M357.316 438.36C334.695 438.36 317.807 422.582 317.807 400.535C317.807 378.488 334.695 362.71 357.42 362.71C370.034 362.71 380.563 367.307 387.443 375.666L376.601 385.697C371.702 380.055 365.551 377.129 358.254 377.129C344.598 377.129 334.903 386.742 334.903 400.535C334.903 414.327 344.598 423.94 358.254 423.94C365.551 423.94 371.702 421.014 376.601 415.268L387.443 425.298C380.563 433.762 370.034 438.36 357.316 438.36Z" fill="white"/>
<path d="M415.63 423.522H455.347V437.106H398.847V363.964H453.992V377.547H415.63V393.429H449.51V406.595H415.63V423.522Z" fill="white"/>
<defs>
<linearGradient id="paint0_linear_241_753" x1="281" y1="0" x2="281" y2="562" gradientUnits="userSpaceOnUse">
<stop stop-color="#40A461"/>
<stop offset="1" stop-color="#3DC8E4"/>
</linearGradient>
</defs>
</svg>
